<svg xmlns="http://www.w3.org/2000/svg" xmlns:v="https://svgstorm.com"
viewBox = "0 0 586 673"
width="586"
height="673">
<g fill="None" fill-opacity="0.0" stroke="#E5CDA6" stroke-opacity="1.00" stroke-width="0.3"><path d="
M 0.00 673.00 
L 586.00 673.00
L 586.00 0.00
L 0.00 0.00
L 0.00 673.00
M 396.00 152.00 
C 395.27 152.35 395.07 152.73 394.00 153.00
C 370.36 159.06 352.41 142.68 351.00 119.00
C 350.73 117.08 349.85 114.60 350.00 112.00
C 349.57 87.27 360.17 63.79 384.23 52.23 C 408.29 40.66 438.22 67.86 433.00 94.00 C 427.78 120.14 420.91 140.19 396.00 152.00
M 329.00 84.00 
C 329.26 84.24 329.84 84.66 330.00 85.00
C 342.01 111.26 318.78 153.79 288.00 150.00
C 286.85 149.86 286.67 149.18 286.00 149.00
C 254.85 140.74 247.82 99.19 262.92 72.92 C 278.03 46.66 323.73 51.69 329.00 84.00
M 512.00 64.00 
C 546.56 65.32 561.33 104.97 556.00 134.00 C 550.67 163.03 536.79 191.56 508.00 203.00
C 499.33 206.44 491.36 207.52 482.00 206.00
C 455.41 201.68 441.00 176.78 441.00 151.00
C 440.76 148.49 440.76 145.45 441.00 143.00
C 441.00 110.27 465.45 65.98 502.00 64.00
C 505.42 63.44 508.66 63.52 512.00 64.00
M 241.00 117.00 
C 241.74 119.05 244.62 128.88 243.00 135.00
C 241.61 134.74 242.22 132.95 242.00 132.00
C 240.00 148.52 226.51 168.75 207.00 166.00 C 187.49 163.25 177.74 144.21 177.02 125.98 C 176.30 107.74 184.05 87.83 204.67 84.67 C 225.29 81.52 238.00 98.14 241.00 117.00
M 149.00 133.00 
C 182.26 138.40 174.45 203.14 140.78 197.22 C 107.11 191.30 114.44 127.39 149.00 133.00
M 448.00 213.00 
C 451.94 216.37 455.67 220.11 459.00 224.00
C 473.35 240.80 483.00 261.60 483.00 284.00
C 483.27 286.82 483.27 290.24 483.00 293.00
C 483.00 297.62 482.52 301.63 482.00 306.00
C 481.94 306.49 482.11 307.52 482.00 308.00
C 477.80 326.96 468.76 344.07 456.00 359.00
C 452.63 362.94 448.89 366.67 445.00 370.00
C 427.00 385.38 407.35 397.97 386.92 408.92 C 366.49 419.88 344.52 430.83 329.00 449.00
C 327.48 450.78 325.50 452.37 324.00 454.00
C 313.45 467.37 304.67 483.22 302.00 500.00
C 301.41 503.72 301.25 507.18 301.00 511.00
C 300.87 513.04 300.16 515.62 300.00 517.00
C 299.90 520.66 300.00 524.34 300.00 528.00
C 300.86 536.90 301.44 547.38 301.00 557.00
C 299.40 556.47 300.28 554.25 300.00 553.00
C 300.00 552.96 299.00 553.00 299.00 553.00
C 297.95 605.57 264.09 654.86 208.00 657.00
C 208.02 657.00 208.00 658.00 208.00 658.00
C 208.40 658.61 195.18 659.04 191.00 659.00 C 186.82 658.96 177.94 657.53 174.00 656.00
C 158.39 649.95 143.77 644.87 130.00 634.00
C 127.02 631.65 124.31 628.93 122.00 626.00
C 107.70 607.89 99.00 586.45 99.00 563.00
C 98.42 557.02 98.43 549.91 99.00 544.00
C 99.00 521.73 107.02 501.26 111.00 480.00
C 111.09 479.52 111.00 479.00 111.00 479.00
C 117.17 461.35 120.00 438.01 120.00 419.00
C 117.96 397.95 117.30 371.95 120.00 351.00
C 119.75 348.69 120.82 346.54 121.00 345.00
C 121.00 340.68 120.83 336.32 121.00 332.00
C 121.07 330.18 121.85 328.15 122.00 327.00
C 122.05 325.34 122.00 323.66 122.00 322.00
C 122.00 320.69 121.87 319.30 122.00 318.00
C 125.98 277.58 139.04 236.33 173.23 210.23 C 207.42 184.13 248.65 169.87 292.00 169.00
C 293.75 168.83 296.60 168.05 299.00 168.00
C 352.36 166.93 407.28 178.21 448.00 213.00 Z"/>
</g>
<g fill="None" fill-opacity="0.0" stroke="#110B07" stroke-opacity="1.00" stroke-width="0.3"><path d="
M 350.00 112.00 
C 350.02 113.41 350.87 116.91 351.00 119.00
C 352.41 142.68 370.36 159.06 394.00 153.00
C 383.27 152.41 369.87 154.00 361.75 143.25 C 353.64 132.50 350.93 120.09 352.00 107.00 C 353.07 93.91 357.25 82.21 363.75 71.75 C 370.25 61.30 378.31 54.48 390.02 52.02 C 401.74 49.57 413.25 52.20 422.25 61.75 C 431.24 71.30 431.00 87.23 430.67 99.67 C 430.34 112.11 422.49 120.28 418.81 130.25 C 415.13 140.23 399.44 145.78 396.00 152.00
C 420.91 140.19 427.78 120.14 433.00 94.00 C 438.22 67.86 408.29 40.66 384.23 52.23 C 360.17 63.79 349.57 87.27 350.00 112.00 Z"/>
</g>
<g fill="None" fill-opacity="0.0" stroke="#281F16" stroke-opacity="1.00" stroke-width="0.3"><path d="
M 394.00 153.00 
C 395.07 152.73 395.27 152.35 396.00 152.00
C 399.44 145.78 415.13 140.23 418.81 130.25 C 422.49 120.28 430.34 112.11 430.67 99.67 C 431.00 87.23 431.24 71.30 422.25 61.75 C 413.25 52.20 401.74 49.57 390.02 52.02 C 378.31 54.48 370.25 61.30 363.75 71.75 C 357.25 82.21 353.07 93.91 352.00 107.00 C 350.93 120.09 353.64 132.50 361.75 143.25 C 369.87 154.00 383.27 152.41 394.00 153.00 Z"/>
</g>
<g fill="None" fill-opacity="0.0" stroke="#0D0906" stroke-opacity="1.00" stroke-width="0.3"><path d="
M 286.00 149.00 
C 281.41 143.16 266.99 141.13 263.23 129.77 C 259.47 118.41 254.94 105.29 257.98 92.98 C 261.01 80.66 262.55 71.71 273.25 63.25 C 283.95 54.79 295.60 57.27 308.08 59.92 C 320.55 62.58 321.58 77.13 329.00 84.00
C 323.73 51.69 278.03 46.66 262.92 72.92 C 247.82 99.19 254.85 140.74 286.00 149.00 Z"/>
</g>
<g fill="None" fill-opacity="0.0" stroke="#281F16" stroke-opacity="1.00" stroke-width="0.3"><path d="
M 286.00 149.00 
C 286.67 149.18 286.85 149.86 288.00 150.00
C 297.58 149.05 306.97 146.30 314.70 139.70 C 322.42 133.10 324.03 125.43 328.33 116.33 C 332.62 107.23 327.22 93.06 330.00 85.00
C 329.84 84.66 329.26 84.24 329.00 84.00
C 321.58 77.13 320.55 62.58 308.08 59.92 C 295.60 57.27 283.95 54.79 273.25 63.25 C 262.55 71.71 261.01 80.66 257.98 92.98 C 254.94 105.29 259.47 118.41 263.23 129.77 C 266.99 141.13 281.41 143.16 286.00 149.00 Z"/>
</g>
<g fill="None" fill-opacity="0.0" stroke="#897356" stroke-opacity="1.00" stroke-width="0.3"><path d="
M 502.00 64.00 
C 505.28 63.82 508.71 63.87 512.00 64.00
C 508.66 63.52 505.42 63.44 502.00 64.00 Z"/>
</g>
<g fill="None" fill-opacity="0.0" stroke="#0F0906" stroke-opacity="1.00" stroke-width="0.3"><path d="
M 441.00 143.00 
C 441.00 145.67 441.00 148.33 441.00 151.00
C 441.00 176.78 455.41 201.68 482.00 206.00
C 482.73 206.26 472.27 202.53 467.78 200.22 C 463.28 197.92 458.44 193.82 454.75 189.25 C 451.06 184.68 448.16 178.95 446.07 172.93 C 443.99 166.90 441.93 160.29 442.00 153.00 C 442.07 145.71 441.71 137.08 443.93 129.93 C 446.15 122.77 445.35 118.46 448.98 110.98 C 452.60 103.49 452.18 103.42 457.77 94.77 C 463.36 86.12 473.85 75.70 483.08 71.08 C 492.31 66.46 491.41 66.51 501.02 65.02 C 510.64 63.54 512.14 64.73 522.68 67.32 C 533.21 69.91 544.02 80.74 548.92 90.08 C 553.82 99.43 552.58 100.84 554.78 109.22 C 556.98 117.60 555.22 121.86 555.01 129.01 C 554.79 136.16 552.62 143.59 551.02 150.02 C 549.43 156.46 546.76 161.49 544.08 167.08 C 541.39 172.66 537.50 177.18 533.75 181.75 C 530.01 186.33 526.49 190.63 521.75 193.75 C 517.02 196.88 510.85 201.18 508.00 203.00
C 536.79 191.56 550.67 163.03 556.00 134.00 C 561.33 104.97 546.56 65.32 512.00 64.00
C 508.71 63.87 505.28 63.82 502.00 64.00
C 465.45 65.98 441.00 110.27 441.00 143.00 Z"/>
</g>
<g fill="None" fill-opacity="0.0" stroke="#281F16" stroke-opacity="1.00" stroke-width="0.3"><path d="
M 482.00 206.00 
C 491.36 207.52 499.33 206.44 508.00 203.00
C 510.85 201.18 517.02 196.88 521.75 193.75 C 526.49 190.63 530.01 186.33 533.75 181.75 C 537.50 177.18 541.39 172.66 544.08 167.08 C 546.76 161.49 549.43 156.46 551.02 150.02 C 552.62 143.59 554.79 136.16 555.01 129.01 C 555.22 121.86 556.98 117.60 554.78 109.22 C 552.58 100.84 553.82 99.43 548.92 90.08 C 544.02 80.74 533.21 69.91 522.68 67.32 C 512.14 64.73 510.64 63.54 501.02 65.02 C 491.41 66.51 492.31 66.46 483.08 71.08 C 473.85 75.70 463.36 86.12 457.77 94.77 C 452.18 103.42 452.60 103.49 448.98 110.98 C 445.35 118.46 446.15 122.77 443.93 129.93 C 441.71 137.08 442.07 145.71 442.00 153.00 C 441.93 160.29 443.99 166.90 446.07 172.93 C 448.16 178.95 451.06 184.68 454.75 189.25 C 458.44 193.82 463.28 197.92 467.78 200.22 C 472.27 202.53 482.73 206.26 482.00 206.00 Z"/>
</g>
<g fill="None" fill-opacity="0.0" stroke="#261D15" stroke-opacity="1.00" stroke-width="0.3"><path d="
M 242.00 132.00 
C 242.61 126.93 241.75 121.70 241.00 117.00
C 238.00 98.14 225.29 81.52 204.67 84.67 C 184.05 87.83 176.30 107.74 177.02 125.98 C 177.74 144.21 187.49 163.25 207.00 166.00 C 226.51 168.75 240.00 148.52 242.00 132.00 Z"/>
</g>
<g fill="None" fill-opacity="0.0" stroke="#0F0A07" stroke-opacity="1.00" stroke-width="0.3"><path d="
M 288.00 150.00 
C 318.78 153.79 342.01 111.26 330.00 85.00
C 327.22 93.06 332.62 107.23 328.33 116.33 C 324.03 125.43 322.42 133.10 314.70 139.70 C 306.97 146.30 297.58 149.05 288.00 150.00 Z"/>
</g>
<g fill="None" fill-opacity="0.0" stroke="#867861" stroke-opacity="1.00" stroke-width="0.3"><path d="
M 351.00 119.00 
C 350.87 116.91 350.02 113.41 350.00 112.00
C 349.85 114.60 350.73 117.08 351.00 119.00 Z"/>
</g>
<g fill="None" fill-opacity="0.0" stroke="#F7F3CB" stroke-opacity="1.00" stroke-width="0.3"><path d="
M 241.00 117.00 
C 241.75 121.70 242.61 126.93 242.00 132.00
C 242.22 132.95 241.61 134.74 243.00 135.00
C 244.62 128.88 241.74 119.05 241.00 117.00 Z"/>
</g>
<g fill="None" fill-opacity="0.0" stroke="#261D15" stroke-opacity="1.00" stroke-width="0.3"><path d="
M 149.00 133.00 
C 114.44 127.39 107.11 191.30 140.78 197.22 C 174.45 203.14 182.26 138.40 149.00 133.00 Z"/>
</g>
<g fill="None" fill-opacity="0.0" stroke="#70573D" stroke-opacity="1.00" stroke-width="0.3"><path d="
M 441.00 151.00 
C 441.00 148.33 441.00 145.67 441.00 143.00
C 440.76 145.45 440.76 148.49 441.00 151.00 Z"/>
</g>
<g fill="None" fill-opacity="0.0" stroke="#3F321F" stroke-opacity="1.00" stroke-width="0.3"><path d="
M 292.00 169.00 
C 294.41 168.95 297.30 168.16 299.00 168.00
C 296.60 168.05 293.75 168.83 292.00 169.00 Z"/>
</g>
<g fill="None" fill-opacity="0.0" stroke="#0F0A06" stroke-opacity="1.00" stroke-width="0.3"><path d="
M 292.00 169.00 
C 248.65 169.87 207.42 184.13 173.23 210.23 C 139.04 236.33 125.98 277.58 122.00 318.00
C 122.06 318.45 123.33 320.70 124.00 321.00
C 125.92 278.39 140.22 237.33 175.25 210.25 C 210.27 183.17 253.49 171.87 298.00 170.00 C 342.51 168.13 389.08 177.32 427.25 199.75 C 465.41 222.19 487.67 262.14 482.00 306.00
C 482.52 301.63 483.00 297.62 483.00 293.00
C 483.00 290.00 483.00 287.00 483.00 284.00
C 483.00 261.60 473.35 240.80 459.00 224.00
C 455.41 220.41 451.54 216.54 448.00 213.00
C 407.28 178.21 352.36 166.93 299.00 168.00
C 297.30 168.16 294.41 168.95 292.00 169.00 Z"/>
</g>
<g fill="None" fill-opacity="0.0" stroke="#281F16" stroke-opacity="1.00" stroke-width="0.3"><path d="
M 122.00 318.00 
C 121.87 319.30 122.00 320.69 122.00 322.00
C 123.34 331.84 121.68 343.26 122.00 354.00 C 122.32 364.74 121.96 377.50 122.00 388.00 C 122.04 398.51 122.65 411.60 121.02 421.02 C 119.39 430.45 121.06 444.23 118.01 452.01 C 114.96 459.78 117.68 475.92 111.00 479.00
C 111.00 479.00 111.09 479.52 111.00 480.00
C 115.49 485.84 106.12 497.32 106.07 505.07 C 106.03 512.83 102.10 523.54 101.07 532.07 C 100.05 540.61 99.76 553.90 100.00 563.00 C 100.24 572.10 102.38 582.04 104.78 590.22 C 107.17 598.41 109.75 605.88 114.25 612.75 C 118.75 619.61 122.15 625.08 128.25 630.75 C 134.35 636.42 139.83 639.69 147.08 643.92 C 154.33 648.15 161.61 650.47 170.02 652.98 C 178.44 655.48 189.64 655.82 199.00 656.00 C 208.36 656.18 218.91 654.83 227.22 652.22 C 235.53 649.62 242.99 647.48 250.23 643.23 C 257.47 638.98 262.24 635.22 268.25 629.25 C 274.25 623.28 277.99 618.48 282.30 611.31 C 286.62 604.13 289.56 597.41 291.98 588.98 C 294.39 580.54 296.34 571.38 297.00 562.00 C 297.66 552.62 298.58 540.91 298.00 531.00
C 300.83 534.27 297.14 540.80 300.00 544.00
C 300.00 538.67 300.00 533.33 300.00 528.00
C 300.00 524.34 299.90 520.66 300.00 517.00
C 300.06 514.78 300.76 512.55 301.00 511.00
C 301.25 507.18 301.41 503.72 302.00 500.00
C 302.11 493.97 303.77 485.85 306.78 479.78 C 309.78 473.70 312.69 467.63 316.30 462.30 C 319.91 456.97 324.75 452.13 328.30 447.30 C 331.86 442.48 336.02 439.67 341.25 435.25 C 346.47 430.83 351.76 428.04 357.23 424.23 C 362.70 420.42 368.57 417.67 374.23 414.23 C 379.89 410.79 386.18 408.36 391.75 404.75 C 397.31 401.13 403.52 398.60 409.08 395.08 C 414.63 391.55 419.71 387.77 425.08 384.08 C 430.45 380.40 435.09 376.30 440.25 372.25 C 445.41 368.19 449.72 363.45 453.90 358.90 C 458.08 354.35 462.26 348.65 465.77 343.77 C 469.28 338.89 472.46 330.78 474.93 325.93 C 477.39 321.07 478.63 308.00 482.00 308.00
C 482.11 307.52 481.94 306.49 482.00 306.00
C 487.67 262.14 465.41 222.19 427.25 199.75 C 389.08 177.32 342.51 168.13 298.00 170.00 C 253.49 171.87 210.27 183.17 175.25 210.25 C 140.22 237.33 125.92 278.39 124.00 321.00
C 123.33 320.70 122.06 318.45 122.00 318.00
M 375.00 303.00 
C 374.03 310.39 370.48 319.80 366.23 327.23 C 361.98 334.66 357.86 342.05 352.70 348.70 C 347.53 355.35 341.29 361.79 334.77 366.77 C 328.25 371.75 321.50 378.09 314.30 381.30 C 307.11 384.51 297.25 390.99 289.93 391.93 C 282.60 392.87 267.73 402.41 262.00 398.00
C 261.51 398.08 261.00 398.00 261.00 398.00
C 258.51 403.00 243.68 402.36 241.00 402.00
C 239.63 402.23 238.93 402.70 238.00 403.00
C 237.15 403.81 230.96 404.95 224.78 407.78 C 218.59 410.60 218.79 411.20 212.25 416.25 C 205.70 421.30 198.83 434.58 197.07 444.07 C 195.31 453.56 194.68 455.97 194.00 464.00 C 193.32 472.03 195.36 479.41 195.33 485.67 C 195.30 491.93 201.77 499.20 199.00 503.00
C 199.18 503.43 199.00 504.00 199.00 504.00
C 197.21 505.86 189.80 496.05 187.75 492.25 C 185.69 488.46 181.94 479.51 181.07 473.93 C 180.20 468.34 180.02 458.97 180.00 452.00 C 179.98 445.03 182.84 437.06 185.00 432.00
C 187.56 420.26 193.26 410.55 193.00 398.00 C 192.74 385.45 190.00 370.97 190.00 358.00
C 190.00 351.10 189.38 343.87 190.00 337.00
C 190.19 334.87 190.68 333.15 191.00 331.00
C 191.21 317.50 196.50 302.11 204.30 290.30 C 212.11 278.50 222.60 270.74 230.00 260.00
C 237.65 259.24 243.76 252.40 251.70 248.70 C 259.63 244.99 267.30 240.74 276.22 238.22 C 285.15 235.71 294.71 231.62 304.22 230.22 C 313.74 228.82 325.23 226.35 335.00 226.00 C 344.77 225.65 357.71 221.42 365.00 224.00
C 372.77 223.04 380.43 220.85 388.00 219.00
C 388.24 248.15 383.53 276.15 375.00 303.00 Z"/>
</g>
<g fill="None" fill-opacity="0.0" stroke="#766753" stroke-opacity="1.00" stroke-width="0.3"><path d="
M 459.00 224.00 
C 455.67 220.11 451.94 216.37 448.00 213.00
C 451.54 216.54 455.41 220.41 459.00 224.00 Z"/>
</g>
<g fill="None" fill-opacity="0.0" stroke="#AF4526" stroke-opacity="1.00" stroke-width="0.3"><path d="
M 365.00 224.00 
C 327.45 228.65 284.07 231.99 251.30 250.30 C 218.54 268.62 196.47 294.34 191.00 331.00
C 190.68 333.15 190.19 334.87 190.00 337.00
C 190.03 343.32 190.62 351.63 190.00 358.00
C 190.00 370.97 192.74 385.45 193.00 398.00 C 193.26 410.55 187.56 420.26 185.00 432.00
C 183.27 439.93 180.66 450.84 181.00 459.00 C 181.34 467.16 182.00 478.94 185.78 485.22 C 189.56 491.50 192.01 501.36 199.00 504.00
C 199.00 504.00 199.18 503.43 199.00 503.00
C 193.53 489.73 191.94 473.76 193.00 459.00 C 194.06 444.24 198.39 434.24 205.75 421.75 C 213.12 409.27 225.74 407.01 238.00 403.00
C 238.93 402.70 239.63 402.23 241.00 402.00
C 247.71 400.86 254.52 400.07 261.00 398.00
C 261.00 398.00 261.51 398.08 262.00 398.00
C 315.52 389.21 357.38 354.50 375.00 303.00
C 383.53 276.15 388.24 248.15 388.00 219.00
C 380.43 220.85 372.77 223.04 365.00 224.00
M 270.00 328.00 
C 270.45 327.85 271.00 328.00 271.00 328.00
C 285.70 318.19 304.02 315.28 321.00 312.00
C 328.93 309.36 338.21 308.66 347.00 308.00
C 343.30 310.47 338.16 310.92 334.00 313.00
C 324.30 316.32 314.48 320.05 305.00 324.00
C 304.75 324.26 304.33 324.83 304.00 325.00
C 283.88 335.49 261.06 343.23 243.92 358.92 C 226.77 374.60 211.86 390.52 199.00 409.00
C 200.08 404.94 201.40 400.93 203.00 397.00
C 203.17 396.67 203.74 396.25 204.00 396.00
C 211.54 368.05 235.97 341.61 256.75 320.75 C 277.53 299.90 303.09 276.67 329.00 264.00
C 329.15 263.66 329.72 263.23 330.00 263.00
C 339.89 254.75 352.98 249.45 364.00 243.00
C 331.51 268.91 299.26 297.04 270.00 328.00 Z"/>
</g>
<g fill="None" fill-opacity="0.0" stroke="#131813" stroke-opacity="1.00" stroke-width="0.3"><path d="
M 191.00 331.00 
C 196.47 294.34 218.54 268.62 251.30 250.30 C 284.07 231.99 327.45 228.65 365.00 224.00
C 357.71 221.42 344.77 225.65 335.00 226.00 C 325.23 226.35 313.74 228.82 304.22 230.22 C 294.71 231.62 285.15 235.71 276.22 238.22 C 267.30 240.74 259.63 244.99 251.70 248.70 C 243.76 252.40 237.65 259.24 230.00 260.00
C 222.60 270.74 212.11 278.50 204.30 290.30 C 196.50 302.11 191.21 317.50 191.00 331.00 Z"/>
</g>
<g fill="None" fill-opacity="0.0" stroke="#181913" stroke-opacity="1.00" stroke-width="0.3"><path d="
M 330.00 263.00 
C 334.95 263.91 340.35 255.48 346.00 255.00
C 338.89 260.93 332.32 270.68 323.00 272.00
C 325.25 276.58 316.04 281.51 311.75 285.75 C 307.46 290.00 300.66 295.82 296.25 300.25 C 291.84 304.68 284.49 309.94 280.75 314.75 C 277.02 319.56 266.84 326.15 270.00 328.00
C 299.26 297.04 331.51 268.91 364.00 243.00
C 352.98 249.45 339.89 254.75 330.00 263.00 Z"/>
</g>
<g fill="None" fill-opacity="0.0" stroke="#281E16" stroke-opacity="1.00" stroke-width="0.3"><path d="
M 330.00 263.00 
C 329.72 263.23 329.15 263.66 329.00 264.00
C 325.50 271.99 310.28 274.81 304.25 282.25 C 298.22 289.69 283.82 292.75 281.00 303.00
C 272.47 304.40 265.48 314.60 258.25 321.25 C 251.02 327.89 244.04 335.65 237.25 343.25 C 230.46 350.84 225.58 360.42 219.74 368.74 C 213.91 377.07 209.09 387.33 204.00 396.00
C 203.74 396.25 203.17 396.67 203.00 397.00
C 203.07 397.47 204.33 399.68 205.00 400.00
C 228.47 364.95 265.28 335.86 304.00 325.00
C 304.33 324.83 304.75 324.26 305.00 324.00
C 311.46 317.25 326.33 314.22 334.00 313.00
C 338.16 310.92 343.30 310.47 347.00 308.00
C 338.21 308.66 328.93 309.36 321.00 312.00
C 316.01 313.66 308.63 315.03 303.33 316.33 C 298.03 317.62 290.99 321.37 285.98 321.98 C 280.96 322.58 274.47 330.70 271.00 328.00
C 271.00 328.00 270.45 327.85 270.00 328.00
C 266.84 326.15 277.02 319.56 280.75 314.75 C 284.49 309.94 291.84 304.68 296.25 300.25 C 300.66 295.82 307.46 290.00 311.75 285.75 C 316.04 281.51 325.25 276.58 323.00 272.00
C 332.32 270.68 338.89 260.93 346.00 255.00
C 340.35 255.48 334.95 263.91 330.00 263.00 Z"/>
</g>
<g fill="None" fill-opacity="0.0" stroke="#141813" stroke-opacity="1.00" stroke-width="0.3"><path d="
M 204.00 396.00 
C 209.09 387.33 213.91 377.07 219.74 368.74 C 225.58 360.42 230.46 350.84 237.25 343.25 C 244.04 335.65 251.02 327.89 258.25 321.25 C 265.48 314.60 272.47 304.40 281.00 303.00
C 283.82 292.75 298.22 289.69 304.25 282.25 C 310.28 274.81 325.50 271.99 329.00 264.00
C 303.09 276.67 277.53 299.90 256.75 320.75 C 235.97 341.61 211.54 368.05 204.00 396.00 Z"/>
</g>
<g fill="None" fill-opacity="0.0" stroke="#5B4731" stroke-opacity="1.00" stroke-width="0.3"><path d="
M 483.00 293.00 
C 483.27 290.24 483.27 286.82 483.00 284.00
C 483.00 287.00 483.00 290.00 483.00 293.00 Z"/>
</g>
<g fill="None" fill-opacity="0.0" stroke="#121812" stroke-opacity="1.00" stroke-width="0.3"><path d="
M 262.00 398.00 
C 267.73 402.41 282.60 392.87 289.93 391.93 C 297.25 390.99 307.11 384.51 314.30 381.30 C 321.50 378.09 328.25 371.75 334.77 366.77 C 341.29 361.79 347.53 355.35 352.70 348.70 C 357.86 342.05 361.98 334.66 366.23 327.23 C 370.48 319.80 374.03 310.39 375.00 303.00
C 357.38 354.50 315.52 389.21 262.00 398.00 Z"/>
</g>
<g fill="None" fill-opacity="0.0" stroke="#0F0906" stroke-opacity="1.00" stroke-width="0.3"><path d="
M 302.00 500.00 
C 304.67 483.22 313.45 467.37 324.00 454.00
C 325.52 452.08 327.36 450.64 329.00 449.00
C 344.52 430.83 366.49 419.88 386.92 408.92 C 407.35 397.97 427.00 385.38 445.00 370.00
C 448.59 366.41 452.46 362.54 456.00 359.00
C 468.76 344.07 477.80 326.96 482.00 308.00
C 478.63 308.00 477.39 321.07 474.93 325.93 C 472.46 330.78 469.28 338.89 465.77 343.77 C 462.26 348.65 458.08 354.35 453.90 358.90 C 449.72 363.45 445.41 368.19 440.25 372.25 C 435.09 376.30 430.45 380.40 425.08 384.08 C 419.71 387.77 414.63 391.55 409.08 395.08 C 403.52 398.60 397.31 401.13 391.75 404.75 C 386.18 408.36 379.89 410.79 374.23 414.23 C 368.57 417.67 362.70 420.42 357.23 424.23 C 351.76 428.04 346.47 430.83 341.25 435.25 C 336.02 439.67 331.86 442.48 328.30 447.30 C 324.75 452.13 319.91 456.97 316.30 462.30 C 312.69 467.63 309.78 473.70 306.78 479.78 C 303.77 485.85 302.11 493.97 302.00 500.00 Z"/>
</g>
<g fill="None" fill-opacity="0.0" stroke="#111712" stroke-opacity="1.00" stroke-width="0.3"><path d="
M 271.00 328.00 
C 274.47 330.70 280.96 322.58 285.98 321.98 C 290.99 321.37 298.03 317.62 303.33 316.33 C 308.63 315.03 316.01 313.66 321.00 312.00
C 304.02 315.28 285.70 318.19 271.00 328.00 Z"/>
</g>
<g fill="None" fill-opacity="0.0" stroke="#131913" stroke-opacity="1.00" stroke-width="0.3"><path d="
M 305.00 324.00 
C 314.48 320.05 324.30 316.32 334.00 313.00
C 326.33 314.22 311.46 317.25 305.00 324.00 Z"/>
</g>
<g fill="None" fill-opacity="0.0" stroke="#070504" stroke-opacity="1.00" stroke-width="0.3"><path d="
M 122.00 327.00 
C 121.95 328.87 121.17 330.80 121.00 332.00
C 120.83 336.32 121.00 340.68 121.00 345.00
C 121.00 347.33 121.00 349.67 121.00 352.00
C 121.00 357.17 122.88 368.10 120.00 372.00
C 120.00 372.50 120.00 373.00 120.00 373.00
C 122.79 376.77 121.00 387.06 121.00 392.00
C 121.00 392.50 121.00 393.00 121.00 393.00
C 121.00 398.39 120.45 404.36 120.00 409.00
C 120.00 412.33 120.00 415.67 120.00 419.00
C 120.00 438.01 117.17 461.35 111.00 479.00
C 117.68 475.92 114.96 459.78 118.01 452.01 C 121.06 444.23 119.39 430.45 121.02 421.02 C 122.65 411.60 122.04 398.51 122.00 388.00 C 121.96 377.50 122.32 364.74 122.00 354.00 C 121.68 343.26 123.34 331.84 122.00 322.00
C 122.00 323.66 122.05 325.34 122.00 327.00 Z"/>
</g>
<g fill="None" fill-opacity="0.0" stroke="#151813" stroke-opacity="1.00" stroke-width="0.3"><path d="
M 203.00 397.00 
C 201.40 400.93 200.08 404.94 199.00 409.00
C 211.86 390.52 226.77 374.60 243.92 358.92 C 261.06 343.23 283.88 335.49 304.00 325.00
C 265.28 335.86 228.47 364.95 205.00 400.00
C 204.33 399.68 203.07 397.47 203.00 397.00 Z"/>
</g>
<g fill="None" fill-opacity="0.0" stroke="#423327" stroke-opacity="1.00" stroke-width="0.3"><path d="
M 121.00 332.00 
C 121.17 330.80 121.95 328.87 122.00 327.00
C 121.85 328.15 121.07 330.18 121.00 332.00 Z"/>
</g>
<g fill="None" fill-opacity="0.0" stroke="#DC592F" stroke-opacity="1.00" stroke-width="0.3"><path d="
M 190.00 358.00 
C 190.62 351.63 190.03 343.32 190.00 337.00
C 189.38 343.87 190.00 351.10 190.00 358.00 Z"/>
</g>
<g fill="None" fill-opacity="0.0" stroke="#7D6853" stroke-opacity="1.00" stroke-width="0.3"><path d="
M 120.00 351.00 
C 120.05 351.49 120.00 352.00 120.00 352.00
C 120.25 352.25 121.00 352.00 121.00 352.00
C 121.00 349.67 121.00 347.33 121.00 345.00
C 120.82 346.54 119.75 348.69 120.00 351.00 Z"/>
</g>
<g fill="None" fill-opacity="0.0" stroke="#FCF7D5" stroke-opacity="1.00" stroke-width="0.3"><path d="
M 120.00 419.00 
C 120.00 415.67 120.00 412.33 120.00 409.00
C 120.00 404.62 118.55 396.30 121.00 393.00
C 121.00 393.00 121.00 392.50 121.00 392.00
C 118.21 388.23 120.00 377.94 120.00 373.00
C 120.00 373.00 120.00 372.50 120.00 372.00
C 120.00 365.33 120.00 358.67 120.00 352.00
C 120.00 352.00 120.05 351.49 120.00 351.00
C 117.30 371.95 117.96 397.95 120.00 419.00 Z"/>
</g>
<g fill="None" fill-opacity="0.0" stroke="#36291C" stroke-opacity="1.00" stroke-width="0.3"><path d="
M 120.00 372.00 
C 122.88 368.10 121.00 357.17 121.00 352.00
C 121.00 352.00 120.25 352.25 120.00 352.00
C 120.00 358.67 120.00 365.33 120.00 372.00 Z"/>
</g>
<g fill="None" fill-opacity="0.0" stroke="#8F7D61" stroke-opacity="1.00" stroke-width="0.3"><path d="
M 445.00 370.00 
C 448.89 366.67 452.63 362.94 456.00 359.00
C 452.46 362.54 448.59 366.41 445.00 370.00 Z"/>
</g>
<g fill="None" fill-opacity="0.0" stroke="#75644C" stroke-opacity="1.00" stroke-width="0.3"><path d="
M 121.00 392.00 
C 121.00 387.06 122.79 376.77 120.00 373.00
C 120.00 377.94 118.21 388.23 121.00 392.00 Z"/>
</g>
<g fill="None" fill-opacity="0.0" stroke="#786951" stroke-opacity="1.00" stroke-width="0.3"><path d="
M 120.00 409.00 
C 120.45 404.36 121.00 398.39 121.00 393.00
C 118.55 396.30 120.00 404.62 120.00 409.00 Z"/>
</g>
<g fill="None" fill-opacity="0.0" stroke="#131813" stroke-opacity="1.00" stroke-width="0.3"><path d="
M 241.00 402.00 
C 243.68 402.36 258.51 403.00 261.00 398.00
C 254.52 400.07 247.71 400.86 241.00 402.00 Z"/>
</g>
<g fill="None" fill-opacity="0.0" stroke="#121712" stroke-opacity="1.00" stroke-width="0.3"><path d="
M 199.00 503.00 
C 201.77 499.20 195.30 491.93 195.33 485.67 C 195.36 479.41 193.32 472.03 194.00 464.00 C 194.68 455.97 195.31 453.56 197.07 444.07 C 198.83 434.58 205.70 421.30 212.25 416.25 C 218.79 411.20 218.59 410.60 224.78 407.78 C 230.96 404.95 237.15 403.81 238.00 403.00
C 225.74 407.01 213.12 409.27 205.75 421.75 C 198.39 434.24 194.06 444.24 193.00 459.00 C 191.94 473.76 193.53 489.73 199.00 503.00 Z"/>
</g>
<g fill="None" fill-opacity="0.0" stroke="#121813" stroke-opacity="1.00" stroke-width="0.3"><path d="
M 199.00 504.00 
C 192.01 501.36 189.56 491.50 185.78 485.22 C 182.00 478.94 181.34 467.16 181.00 459.00 C 180.66 450.84 183.27 439.93 185.00 432.00
C 182.84 437.06 179.98 445.03 180.00 452.00 C 180.02 458.97 180.20 468.34 181.07 473.93 C 181.94 479.51 185.69 488.46 187.75 492.25 C 189.80 496.05 197.21 505.86 199.00 504.00 Z"/>
</g>
<g fill="None" fill-opacity="0.0" stroke="#8C7960" stroke-opacity="1.00" stroke-width="0.3"><path d="
M 324.00 454.00 
C 325.50 452.37 327.48 450.78 329.00 449.00
C 327.36 450.64 325.52 452.08 324.00 454.00 Z"/>
</g>
<g fill="None" fill-opacity="0.0" stroke="#0D0805" stroke-opacity="1.00" stroke-width="0.3"><path d="
M 99.00 544.00 
C 99.00 550.33 99.00 556.67 99.00 563.00
C 99.00 586.45 107.70 607.89 122.00 626.00
C 124.35 628.55 127.50 631.69 130.00 634.00
C 143.77 644.87 158.39 649.95 174.00 656.00
C 182.27 657.95 191.25 658.00 200.00 658.00
C 202.05 657.80 205.31 657.10 208.00 657.00
C 264.09 654.86 297.95 605.57 299.00 553.00
C 299.06 550.21 299.07 548.18 300.00 546.00
C 300.00 545.50 300.00 544.50 300.00 544.00
C 297.14 540.80 300.83 534.27 298.00 531.00
C 298.58 540.91 297.66 552.62 297.00 562.00 C 296.34 571.38 294.39 580.54 291.98 588.98 C 289.56 597.41 286.62 604.13 282.30 611.31 C 277.99 618.48 274.25 623.28 268.25 629.25 C 262.24 635.22 257.47 638.98 250.23 643.23 C 242.99 647.48 235.53 649.62 227.22 652.22 C 218.91 654.83 208.36 656.18 199.00 656.00 C 189.64 655.82 178.44 655.48 170.02 652.98 C 161.61 650.47 154.33 648.15 147.08 643.92 C 139.83 639.69 134.35 636.42 128.25 630.75 C 122.15 625.08 118.75 619.61 114.25 612.75 C 109.75 605.88 107.17 598.41 104.78 590.22 C 102.38 582.04 100.24 572.10 100.00 563.00 C 99.76 553.90 100.05 540.61 101.07 532.07 C 102.10 523.54 106.03 512.83 106.07 505.07 C 106.12 497.32 115.49 485.84 111.00 480.00
C 107.02 501.26 99.00 521.73 99.00 544.00 Z"/>
</g>
<g fill="None" fill-opacity="0.0" stroke="#8C785E" stroke-opacity="1.00" stroke-width="0.3"><path d="
M 300.00 517.00 
C 300.16 515.62 300.87 513.04 301.00 511.00
C 300.76 512.55 300.06 514.78 300.00 517.00 Z"/>
</g>
<g fill="None" fill-opacity="0.0" stroke="#FCF5CE" stroke-opacity="1.00" stroke-width="0.3"><path d="
M 300.00 544.00 
C 300.00 544.50 300.00 545.50 300.00 546.00
C 300.00 548.31 299.82 550.70 300.00 553.00
C 300.28 554.25 299.40 556.47 301.00 557.00
C 301.44 547.38 300.86 536.90 300.00 528.00
C 300.00 533.33 300.00 538.67 300.00 544.00 Z"/>
</g>
<g fill="None" fill-opacity="0.0" stroke="#635440" stroke-opacity="1.00" stroke-width="0.3"><path d="
M 99.00 563.00 
C 99.00 556.67 99.00 550.33 99.00 544.00
C 98.43 549.91 98.42 557.02 99.00 563.00 Z"/>
</g>
<g fill="None" fill-opacity="0.0" stroke="#A08A6B" stroke-opacity="1.00" stroke-width="0.3"><path d="
M 299.00 553.00 
C 299.00 553.00 300.00 552.96 300.00 553.00
C 299.82 550.70 300.00 548.31 300.00 546.00
C 299.07 548.18 299.06 550.21 299.00 553.00 Z"/>
</g>
<g fill="None" fill-opacity="0.0" stroke="#948065" stroke-opacity="1.00" stroke-width="0.3"><path d="
M 130.00 634.00 
C 127.50 631.69 124.35 628.55 122.00 626.00
C 124.31 628.93 127.02 631.65 130.00 634.00 Z"/>
</g>
<g fill="None" fill-opacity="0.0" stroke="#F7F2D1" stroke-opacity="1.00" stroke-width="0.3"><path d="
M 208.00 658.00 
C 205.38 658.23 202.63 658.00 200.00 658.00
C 191.25 658.00 182.27 657.95 174.00 656.00
C 177.94 657.53 186.82 658.96 191.00 659.00 C 195.18 659.04 208.40 658.61 208.00 658.00 Z"/>
</g>
<g fill="None" fill-opacity="0.0" stroke="#4E3928" stroke-opacity="1.00" stroke-width="0.3"><path d="
M 200.00 658.00 
C 202.63 658.00 205.38 658.23 208.00 658.00
C 208.00 658.00 208.02 657.00 208.00 657.00
C 205.31 657.10 202.05 657.80 200.00 658.00 Z"/>
</g>
<g fill="#E5CDA6" fill-opacity="1.00" stroke="None">
<path d="
M 0.00 673.00 
L 586.00 673.00
L 586.00 0.00
L 0.00 0.00
L 0.00 673.00
M 396.00 152.00 
C 395.27 152.35 395.07 152.73 394.00 153.00
C 370.36 159.06 352.41 142.68 351.00 119.00
C 350.73 117.08 349.85 114.60 350.00 112.00
C 349.57 87.27 360.17 63.79 384.23 52.23 C 408.29 40.66 438.22 67.86 433.00 94.00 C 427.78 120.14 420.91 140.19 396.00 152.00
M 329.00 84.00 
C 329.26 84.24 329.84 84.66 330.00 85.00
C 342.01 111.26 318.78 153.79 288.00 150.00
C 286.85 149.86 286.67 149.18 286.00 149.00
C 254.85 140.74 247.82 99.19 262.92 72.92 C 278.03 46.66 323.73 51.69 329.00 84.00
M 512.00 64.00 
C 546.56 65.32 561.33 104.97 556.00 134.00 C 550.67 163.03 536.79 191.56 508.00 203.00
C 499.33 206.44 491.36 207.52 482.00 206.00
C 455.41 201.68 441.00 176.78 441.00 151.00
C 440.76 148.49 440.76 145.45 441.00 143.00
C 441.00 110.27 465.45 65.98 502.00 64.00
C 505.42 63.44 508.66 63.52 512.00 64.00
M 241.00 117.00 
C 241.74 119.05 244.62 128.88 243.00 135.00
C 241.61 134.74 242.22 132.95 242.00 132.00
C 240.00 148.52 226.51 168.75 207.00 166.00 C 187.49 163.25 177.74 144.21 177.02 125.98 C 176.30 107.74 184.05 87.83 204.67 84.67 C 225.29 81.52 238.00 98.14 241.00 117.00
M 149.00 133.00 
C 182.26 138.40 174.45 203.14 140.78 197.22 C 107.11 191.30 114.44 127.39 149.00 133.00
M 448.00 213.00 
C 451.94 216.37 455.67 220.11 459.00 224.00
C 473.35 240.80 483.00 261.60 483.00 284.00
C 483.27 286.82 483.27 290.24 483.00 293.00
C 483.00 297.62 482.52 301.63 482.00 306.00
C 481.94 306.49 482.11 307.52 482.00 308.00
C 477.80 326.96 468.76 344.07 456.00 359.00
C 452.63 362.94 448.89 366.67 445.00 370.00
C 427.00 385.38 407.35 397.97 386.92 408.92 C 366.49 419.88 344.52 430.83 329.00 449.00
C 327.48 450.78 325.50 452.37 324.00 454.00
C 313.45 467.37 304.67 483.22 302.00 500.00
C 301.41 503.72 301.25 507.18 301.00 511.00
C 300.87 513.04 300.16 515.62 300.00 517.00
C 299.90 520.66 300.00 524.34 300.00 528.00
C 300.86 536.90 301.44 547.38 301.00 557.00
C 299.40 556.47 300.28 554.25 300.00 553.00
C 300.00 552.96 299.00 553.00 299.00 553.00
C 297.95 605.57 264.09 654.86 208.00 657.00
C 208.02 657.00 208.00 658.00 208.00 658.00
C 208.40 658.61 195.18 659.04 191.00 659.00 C 186.82 658.96 177.94 657.53 174.00 656.00
C 158.39 649.95 143.77 644.87 130.00 634.00
C 127.02 631.65 124.31 628.93 122.00 626.00
C 107.70 607.89 99.00 586.45 99.00 563.00
C 98.42 557.02 98.43 549.91 99.00 544.00
C 99.00 521.73 107.02 501.26 111.00 480.00
C 111.09 479.52 111.00 479.00 111.00 479.00
C 117.17 461.35 120.00 438.01 120.00 419.00
C 117.96 397.95 117.30 371.95 120.00 351.00
C 119.75 348.69 120.82 346.54 121.00 345.00
C 121.00 340.68 120.83 336.32 121.00 332.00
C 121.07 330.18 121.85 328.15 122.00 327.00
C 122.05 325.34 122.00 323.66 122.00 322.00
C 122.00 320.69 121.87 319.30 122.00 318.00
C 125.98 277.58 139.04 236.33 173.23 210.23 C 207.42 184.13 248.65 169.87 292.00 169.00
C 293.75 168.83 296.60 168.05 299.00 168.00
C 352.36 166.93 407.28 178.21 448.00 213.00 Z"/>
</g>
<g fill="#110B07" fill-opacity="1.00" stroke="None">
<path d="
M 350.00 112.00 
C 350.02 113.41 350.87 116.91 351.00 119.00
C 352.41 142.68 370.36 159.06 394.00 153.00
C 383.27 152.41 369.87 154.00 361.75 143.25 C 353.64 132.50 350.93 120.09 352.00 107.00 C 353.07 93.91 357.25 82.21 363.75 71.75 C 370.25 61.30 378.31 54.48 390.02 52.02 C 401.74 49.57 413.25 52.20 422.25 61.75 C 431.24 71.30 431.00 87.23 430.67 99.67 C 430.34 112.11 422.49 120.28 418.81 130.25 C 415.13 140.23 399.44 145.78 396.00 152.00
C 420.91 140.19 427.78 120.14 433.00 94.00 C 438.22 67.86 408.29 40.66 384.23 52.23 C 360.17 63.79 349.57 87.27 350.00 112.00 Z"/>
</g>
<g fill="#281F16" fill-opacity="1.00" stroke="None">
<path d="
M 394.00 153.00 
C 395.07 152.73 395.27 152.35 396.00 152.00
C 399.44 145.78 415.13 140.23 418.81 130.25 C 422.49 120.28 430.34 112.11 430.67 99.67 C 431.00 87.23 431.24 71.30 422.25 61.75 C 413.25 52.20 401.74 49.57 390.02 52.02 C 378.31 54.48 370.25 61.30 363.75 71.75 C 357.25 82.21 353.07 93.91 352.00 107.00 C 350.93 120.09 353.64 132.50 361.75 143.25 C 369.87 154.00 383.27 152.41 394.00 153.00 Z"/>
</g>
<g fill="#0D0906" fill-opacity="1.00" stroke="None">
<path d="
M 286.00 149.00 
C 281.41 143.16 266.99 141.13 263.23 129.77 C 259.47 118.41 254.94 105.29 257.98 92.98 C 261.01 80.66 262.55 71.71 273.25 63.25 C 283.95 54.79 295.60 57.27 308.08 59.92 C 320.55 62.58 321.58 77.13 329.00 84.00
C 323.73 51.69 278.03 46.66 262.92 72.92 C 247.82 99.19 254.85 140.74 286.00 149.00 Z"/>
</g>
<g fill="#281F16" fill-opacity="1.00" stroke="None">
<path d="
M 286.00 149.00 
C 286.67 149.18 286.85 149.86 288.00 150.00
C 297.58 149.05 306.97 146.30 314.70 139.70 C 322.42 133.10 324.03 125.43 328.33 116.33 C 332.62 107.23 327.22 93.06 330.00 85.00
C 329.84 84.66 329.26 84.24 329.00 84.00
C 321.58 77.13 320.55 62.58 308.08 59.92 C 295.60 57.27 283.95 54.79 273.25 63.25 C 262.55 71.71 261.01 80.66 257.98 92.98 C 254.94 105.29 259.47 118.41 263.23 129.77 C 266.99 141.13 281.41 143.16 286.00 149.00 Z"/>
</g>
<g fill="#897356" fill-opacity="1.00" stroke="None">
<path d="
M 502.00 64.00 
C 505.28 63.82 508.71 63.87 512.00 64.00
C 508.66 63.52 505.42 63.44 502.00 64.00 Z"/>
</g>
<g fill="#0F0906" fill-opacity="1.00" stroke="None">
<path d="
M 441.00 143.00 
C 441.00 145.67 441.00 148.33 441.00 151.00
C 441.00 176.78 455.41 201.68 482.00 206.00
C 482.73 206.26 472.27 202.53 467.78 200.22 C 463.28 197.92 458.44 193.82 454.75 189.25 C 451.06 184.68 448.16 178.95 446.07 172.93 C 443.99 166.90 441.93 160.29 442.00 153.00 C 442.07 145.71 441.71 137.08 443.93 129.93 C 446.15 122.77 445.35 118.46 448.98 110.98 C 452.60 103.49 452.18 103.42 457.77 94.77 C 463.36 86.12 473.85 75.70 483.08 71.08 C 492.31 66.46 491.41 66.51 501.02 65.02 C 510.64 63.54 512.14 64.73 522.68 67.32 C 533.21 69.91 544.02 80.74 548.92 90.08 C 553.82 99.43 552.58 100.84 554.78 109.22 C 556.98 117.60 555.22 121.86 555.01 129.01 C 554.79 136.16 552.62 143.59 551.02 150.02 C 549.43 156.46 546.76 161.49 544.08 167.08 C 541.39 172.66 537.50 177.18 533.75 181.75 C 530.01 186.33 526.49 190.63 521.75 193.75 C 517.02 196.88 510.85 201.18 508.00 203.00
C 536.79 191.56 550.67 163.03 556.00 134.00 C 561.33 104.97 546.56 65.32 512.00 64.00
C 508.71 63.87 505.28 63.82 502.00 64.00
C 465.45 65.98 441.00 110.27 441.00 143.00 Z"/>
</g>
<g fill="#281F16" fill-opacity="1.00" stroke="None">
<path d="
M 482.00 206.00 
C 491.36 207.52 499.33 206.44 508.00 203.00
C 510.85 201.18 517.02 196.88 521.75 193.75 C 526.49 190.63 530.01 186.33 533.75 181.75 C 537.50 177.18 541.39 172.66 544.08 167.08 C 546.76 161.49 549.43 156.46 551.02 150.02 C 552.62 143.59 554.79 136.16 555.01 129.01 C 555.22 121.86 556.98 117.60 554.78 109.22 C 552.58 100.84 553.82 99.43 548.92 90.08 C 544.02 80.74 533.21 69.91 522.68 67.32 C 512.14 64.73 510.64 63.54 501.02 65.02 C 491.41 66.51 492.31 66.46 483.08 71.08 C 473.85 75.70 463.36 86.12 457.77 94.77 C 452.18 103.42 452.60 103.49 448.98 110.98 C 445.35 118.46 446.15 122.77 443.93 129.93 C 441.71 137.08 442.07 145.71 442.00 153.00 C 441.93 160.29 443.99 166.90 446.07 172.93 C 448.16 178.95 451.06 184.68 454.75 189.25 C 458.44 193.82 463.28 197.92 467.78 200.22 C 472.27 202.53 482.73 206.26 482.00 206.00 Z"/>
</g>
<g fill="#261D15" fill-opacity="1.00" stroke="None">
<path d="
M 242.00 132.00 
C 242.61 126.93 241.75 121.70 241.00 117.00
C 238.00 98.14 225.29 81.52 204.67 84.67 C 184.05 87.83 176.30 107.74 177.02 125.98 C 177.74 144.21 187.49 163.25 207.00 166.00 C 226.51 168.75 240.00 148.52 242.00 132.00 Z"/>
</g>
<g fill="#0F0A07" fill-opacity="1.00" stroke="None">
<path d="
M 288.00 150.00 
C 318.78 153.79 342.01 111.26 330.00 85.00
C 327.22 93.06 332.62 107.23 328.33 116.33 C 324.03 125.43 322.42 133.10 314.70 139.70 C 306.97 146.30 297.58 149.05 288.00 150.00 Z"/>
</g>
<g fill="#867861" fill-opacity="1.00" stroke="None">
<path d="
M 351.00 119.00 
C 350.87 116.91 350.02 113.41 350.00 112.00
C 349.85 114.60 350.73 117.08 351.00 119.00 Z"/>
</g>
<g fill="#F7F3CB" fill-opacity="1.00" stroke="None">
<path d="
M 241.00 117.00 
C 241.75 121.70 242.61 126.93 242.00 132.00
C 242.22 132.95 241.61 134.74 243.00 135.00
C 244.62 128.88 241.74 119.05 241.00 117.00 Z"/>
</g>
<g fill="#261D15" fill-opacity="1.00" stroke="None">
<path d="
M 149.00 133.00 
C 114.44 127.39 107.11 191.30 140.78 197.22 C 174.45 203.14 182.26 138.40 149.00 133.00 Z"/>
</g>
<g fill="#70573D" fill-opacity="1.00" stroke="None">
<path d="
M 441.00 151.00 
C 441.00 148.33 441.00 145.67 441.00 143.00
C 440.76 145.45 440.76 148.49 441.00 151.00 Z"/>
</g>
<g fill="#3F321F" fill-opacity="1.00" stroke="None">
<path d="
M 292.00 169.00 
C 294.41 168.95 297.30 168.16 299.00 168.00
C 296.60 168.05 293.75 168.83 292.00 169.00 Z"/>
</g>
<g fill="#0F0A06" fill-opacity="1.00" stroke="None">
<path d="
M 292.00 169.00 
C 248.65 169.87 207.42 184.13 173.23 210.23 C 139.04 236.33 125.98 277.58 122.00 318.00
C 122.06 318.45 123.33 320.70 124.00 321.00
C 125.92 278.39 140.22 237.33 175.25 210.25 C 210.27 183.17 253.49 171.87 298.00 170.00 C 342.51 168.13 389.08 177.32 427.25 199.75 C 465.41 222.19 487.67 262.14 482.00 306.00
C 482.52 301.63 483.00 297.62 483.00 293.00
C 483.00 290.00 483.00 287.00 483.00 284.00
C 483.00 261.60 473.35 240.80 459.00 224.00
C 455.41 220.41 451.54 216.54 448.00 213.00
C 407.28 178.21 352.36 166.93 299.00 168.00
C 297.30 168.16 294.41 168.95 292.00 169.00 Z"/>
</g>
<g fill="#281F16" fill-opacity="1.00" stroke="None">
<path d="
M 122.00 318.00 
C 121.87 319.30 122.00 320.69 122.00 322.00
C 123.34 331.84 121.68 343.26 122.00 354.00 C 122.32 364.74 121.96 377.50 122.00 388.00 C 122.04 398.51 122.65 411.60 121.02 421.02 C 119.39 430.45 121.06 444.23 118.01 452.01 C 114.96 459.78 117.68 475.92 111.00 479.00
C 111.00 479.00 111.09 479.52 111.00 480.00
C 115.49 485.84 106.12 497.32 106.07 505.07 C 106.03 512.83 102.10 523.54 101.07 532.07 C 100.05 540.61 99.76 553.90 100.00 563.00 C 100.24 572.10 102.38 582.04 104.78 590.22 C 107.17 598.41 109.75 605.88 114.25 612.75 C 118.75 619.61 122.15 625.08 128.25 630.75 C 134.35 636.42 139.83 639.69 147.08 643.92 C 154.33 648.15 161.61 650.47 170.02 652.98 C 178.44 655.48 189.64 655.82 199.00 656.00 C 208.36 656.18 218.91 654.83 227.22 652.22 C 235.53 649.62 242.99 647.48 250.23 643.23 C 257.47 638.98 262.24 635.22 268.25 629.25 C 274.25 623.28 277.99 618.48 282.30 611.31 C 286.62 604.13 289.56 597.41 291.98 588.98 C 294.39 580.54 296.34 571.38 297.00 562.00 C 297.66 552.62 298.58 540.91 298.00 531.00
C 300.83 534.27 297.14 540.80 300.00 544.00
C 300.00 538.67 300.00 533.33 300.00 528.00
C 300.00 524.34 299.90 520.66 300.00 517.00
C 300.06 514.78 300.76 512.55 301.00 511.00
C 301.25 507.18 301.41 503.72 302.00 500.00
C 302.11 493.97 303.77 485.85 306.78 479.78 C 309.78 473.70 312.69 467.63 316.30 462.30 C 319.91 456.97 324.75 452.13 328.30 447.30 C 331.86 442.48 336.02 439.67 341.25 435.25 C 346.47 430.83 351.76 428.04 357.23 424.23 C 362.70 420.42 368.57 417.67 374.23 414.23 C 379.89 410.79 386.18 408.36 391.75 404.75 C 397.31 401.13 403.52 398.60 409.08 395.08 C 414.63 391.55 419.71 387.77 425.08 384.08 C 430.45 380.40 435.09 376.30 440.25 372.25 C 445.41 368.19 449.72 363.45 453.90 358.90 C 458.08 354.35 462.26 348.65 465.77 343.77 C 469.28 338.89 472.46 330.78 474.93 325.93 C 477.39 321.07 478.63 308.00 482.00 308.00
C 482.11 307.52 481.94 306.49 482.00 306.00
C 487.67 262.14 465.41 222.19 427.25 199.75 C 389.08 177.32 342.51 168.13 298.00 170.00 C 253.49 171.87 210.27 183.17 175.25 210.25 C 140.22 237.33 125.92 278.39 124.00 321.00
C 123.33 320.70 122.06 318.45 122.00 318.00
M 375.00 303.00 
C 374.03 310.39 370.48 319.80 366.23 327.23 C 361.98 334.66 357.86 342.05 352.70 348.70 C 347.53 355.35 341.29 361.79 334.77 366.77 C 328.25 371.75 321.50 378.09 314.30 381.30 C 307.11 384.51 297.25 390.99 289.93 391.93 C 282.60 392.87 267.73 402.41 262.00 398.00
C 261.51 398.08 261.00 398.00 261.00 398.00
C 258.51 403.00 243.68 402.36 241.00 402.00
C 239.63 402.23 238.93 402.70 238.00 403.00
C 237.15 403.81 230.96 404.95 224.78 407.78 C 218.59 410.60 218.79 411.20 212.25 416.25 C 205.70 421.30 198.83 434.58 197.07 444.07 C 195.31 453.56 194.68 455.97 194.00 464.00 C 193.32 472.03 195.36 479.41 195.33 485.67 C 195.30 491.93 201.77 499.20 199.00 503.00
C 199.18 503.43 199.00 504.00 199.00 504.00
C 197.21 505.86 189.80 496.05 187.75 492.25 C 185.69 488.46 181.94 479.51 181.07 473.93 C 180.20 468.34 180.02 458.97 180.00 452.00 C 179.98 445.03 182.84 437.06 185.00 432.00
C 187.56 420.26 193.26 410.55 193.00 398.00 C 192.74 385.45 190.00 370.97 190.00 358.00
C 190.00 351.10 189.38 343.87 190.00 337.00
C 190.19 334.87 190.68 333.15 191.00 331.00
C 191.21 317.50 196.50 302.11 204.30 290.30 C 212.11 278.50 222.60 270.74 230.00 260.00
C 237.65 259.24 243.76 252.40 251.70 248.70 C 259.63 244.99 267.30 240.74 276.22 238.22 C 285.15 235.71 294.71 231.62 304.22 230.22 C 313.74 228.82 325.23 226.35 335.00 226.00 C 344.77 225.65 357.71 221.42 365.00 224.00
C 372.77 223.04 380.43 220.85 388.00 219.00
C 388.24 248.15 383.53 276.15 375.00 303.00 Z"/>
</g>
<g fill="#766753" fill-opacity="1.00" stroke="None">
<path d="
M 459.00 224.00 
C 455.67 220.11 451.94 216.37 448.00 213.00
C 451.54 216.54 455.41 220.41 459.00 224.00 Z"/>
</g>
<g fill="#AF4526" fill-opacity="1.00" stroke="None">
<path d="
M 365.00 224.00 
C 327.45 228.65 284.07 231.99 251.30 250.30 C 218.54 268.62 196.47 294.34 191.00 331.00
C 190.68 333.15 190.19 334.87 190.00 337.00
C 190.03 343.32 190.62 351.63 190.00 358.00
C 190.00 370.97 192.74 385.45 193.00 398.00 C 193.26 410.55 187.56 420.26 185.00 432.00
C 183.27 439.93 180.66 450.84 181.00 459.00 C 181.34 467.16 182.00 478.94 185.78 485.22 C 189.56 491.50 192.01 501.36 199.00 504.00
C 199.00 504.00 199.18 503.43 199.00 503.00
C 193.53 489.73 191.94 473.76 193.00 459.00 C 194.06 444.24 198.39 434.24 205.75 421.75 C 213.12 409.27 225.74 407.01 238.00 403.00
C 238.93 402.70 239.63 402.23 241.00 402.00
C 247.71 400.86 254.52 400.07 261.00 398.00
C 261.00 398.00 261.51 398.08 262.00 398.00
C 315.52 389.21 357.38 354.50 375.00 303.00
C 383.53 276.15 388.24 248.15 388.00 219.00
C 380.43 220.85 372.77 223.04 365.00 224.00
M 270.00 328.00 
C 270.45 327.85 271.00 328.00 271.00 328.00
C 285.70 318.19 304.02 315.28 321.00 312.00
C 328.93 309.36 338.21 308.66 347.00 308.00
C 343.30 310.47 338.16 310.92 334.00 313.00
C 324.30 316.32 314.48 320.05 305.00 324.00
C 304.75 324.26 304.33 324.83 304.00 325.00
C 283.88 335.49 261.06 343.23 243.92 358.92 C 226.77 374.60 211.86 390.52 199.00 409.00
C 200.08 404.94 201.40 400.93 203.00 397.00
C 203.17 396.67 203.74 396.25 204.00 396.00
C 211.54 368.05 235.97 341.61 256.75 320.75 C 277.53 299.90 303.09 276.67 329.00 264.00
C 329.15 263.66 329.72 263.23 330.00 263.00
C 339.89 254.75 352.98 249.45 364.00 243.00
C 331.51 268.91 299.26 297.04 270.00 328.00 Z"/>
</g>
<g fill="#131813" fill-opacity="1.00" stroke="None">
<path d="
M 191.00 331.00 
C 196.47 294.34 218.54 268.62 251.30 250.30 C 284.07 231.99 327.45 228.65 365.00 224.00
C 357.71 221.42 344.77 225.65 335.00 226.00 C 325.23 226.35 313.74 228.82 304.22 230.22 C 294.71 231.62 285.15 235.71 276.22 238.22 C 267.30 240.74 259.63 244.99 251.70 248.70 C 243.76 252.40 237.65 259.24 230.00 260.00
C 222.60 270.74 212.11 278.50 204.30 290.30 C 196.50 302.11 191.21 317.50 191.00 331.00 Z"/>
</g>
<g fill="#181913" fill-opacity="1.00" stroke="None">
<path d="
M 330.00 263.00 
C 334.95 263.91 340.35 255.48 346.00 255.00
C 338.89 260.93 332.32 270.68 323.00 272.00
C 325.25 276.58 316.04 281.51 311.75 285.75 C 307.46 290.00 300.66 295.82 296.25 300.25 C 291.84 304.68 284.49 309.94 280.75 314.75 C 277.02 319.56 266.84 326.15 270.00 328.00
C 299.26 297.04 331.51 268.91 364.00 243.00
C 352.98 249.45 339.89 254.75 330.00 263.00 Z"/>
</g>
<g fill="#281E16" fill-opacity="1.00" stroke="None">
<path d="
M 330.00 263.00 
C 329.72 263.23 329.15 263.66 329.00 264.00
C 325.50 271.99 310.28 274.81 304.25 282.25 C 298.22 289.69 283.82 292.75 281.00 303.00
C 272.47 304.40 265.48 314.60 258.25 321.25 C 251.02 327.89 244.04 335.65 237.25 343.25 C 230.46 350.84 225.58 360.42 219.74 368.74 C 213.91 377.07 209.09 387.33 204.00 396.00
C 203.74 396.25 203.17 396.67 203.00 397.00
C 203.07 397.47 204.33 399.68 205.00 400.00
C 228.47 364.95 265.28 335.86 304.00 325.00
C 304.33 324.83 304.75 324.26 305.00 324.00
C 311.46 317.25 326.33 314.22 334.00 313.00
C 338.16 310.92 343.30 310.47 347.00 308.00
C 338.21 308.66 328.93 309.36 321.00 312.00
C 316.01 313.66 308.63 315.03 303.33 316.33 C 298.03 317.62 290.99 321.37 285.98 321.98 C 280.96 322.58 274.47 330.70 271.00 328.00
C 271.00 328.00 270.45 327.85 270.00 328.00
C 266.84 326.15 277.02 319.56 280.75 314.75 C 284.49 309.94 291.84 304.68 296.25 300.25 C 300.66 295.82 307.46 290.00 311.75 285.75 C 316.04 281.51 325.25 276.58 323.00 272.00
C 332.32 270.68 338.89 260.93 346.00 255.00
C 340.35 255.48 334.95 263.91 330.00 263.00 Z"/>
</g>
<g fill="#141813" fill-opacity="1.00" stroke="None">
<path d="
M 204.00 396.00 
C 209.09 387.33 213.91 377.07 219.74 368.74 C 225.58 360.42 230.46 350.84 237.25 343.25 C 244.04 335.65 251.02 327.89 258.25 321.25 C 265.48 314.60 272.47 304.40 281.00 303.00
C 283.82 292.75 298.22 289.69 304.25 282.25 C 310.28 274.81 325.50 271.99 329.00 264.00
C 303.09 276.67 277.53 299.90 256.75 320.75 C 235.97 341.61 211.54 368.05 204.00 396.00 Z"/>
</g>
<g fill="#5B4731" fill-opacity="1.00" stroke="None">
<path d="
M 483.00 293.00 
C 483.27 290.24 483.27 286.82 483.00 284.00
C 483.00 287.00 483.00 290.00 483.00 293.00 Z"/>
</g>
<g fill="#121812" fill-opacity="1.00" stroke="None">
<path d="
M 262.00 398.00 
C 267.73 402.41 282.60 392.87 289.93 391.93 C 297.25 390.99 307.11 384.51 314.30 381.30 C 321.50 378.09 328.25 371.75 334.77 366.77 C 341.29 361.79 347.53 355.35 352.70 348.70 C 357.86 342.05 361.98 334.66 366.23 327.23 C 370.48 319.80 374.03 310.39 375.00 303.00
C 357.38 354.50 315.52 389.21 262.00 398.00 Z"/>
</g>
<g fill="#0F0906" fill-opacity="1.00" stroke="None">
<path d="
M 302.00 500.00 
C 304.67 483.22 313.45 467.37 324.00 454.00
C 325.52 452.08 327.36 450.64 329.00 449.00
C 344.52 430.83 366.49 419.88 386.92 408.92 C 407.35 397.97 427.00 385.38 445.00 370.00
C 448.59 366.41 452.46 362.54 456.00 359.00
C 468.76 344.07 477.80 326.96 482.00 308.00
C 478.63 308.00 477.39 321.07 474.93 325.93 C 472.46 330.78 469.28 338.89 465.77 343.77 C 462.26 348.65 458.08 354.35 453.90 358.90 C 449.72 363.45 445.41 368.19 440.25 372.25 C 435.09 376.30 430.45 380.40 425.08 384.08 C 419.71 387.77 414.63 391.55 409.08 395.08 C 403.52 398.60 397.31 401.13 391.75 404.75 C 386.18 408.36 379.89 410.79 374.23 414.23 C 368.57 417.67 362.70 420.42 357.23 424.23 C 351.76 428.04 346.47 430.83 341.25 435.25 C 336.02 439.67 331.86 442.48 328.30 447.30 C 324.75 452.13 319.91 456.97 316.30 462.30 C 312.69 467.63 309.78 473.70 306.78 479.78 C 303.77 485.85 302.11 493.97 302.00 500.00 Z"/>
</g>
<g fill="#111712" fill-opacity="1.00" stroke="None">
<path d="
M 271.00 328.00 
C 274.47 330.70 280.96 322.58 285.98 321.98 C 290.99 321.37 298.03 317.62 303.33 316.33 C 308.63 315.03 316.01 313.66 321.00 312.00
C 304.02 315.28 285.70 318.19 271.00 328.00 Z"/>
</g>
<g fill="#131913" fill-opacity="1.00" stroke="None">
<path d="
M 305.00 324.00 
C 314.48 320.05 324.30 316.32 334.00 313.00
C 326.33 314.22 311.46 317.25 305.00 324.00 Z"/>
</g>
<g fill="#070504" fill-opacity="1.00" stroke="None">
<path d="
M 122.00 327.00 
C 121.95 328.87 121.17 330.80 121.00 332.00
C 120.83 336.32 121.00 340.68 121.00 345.00
C 121.00 347.33 121.00 349.67 121.00 352.00
C 121.00 357.17 122.88 368.10 120.00 372.00
C 120.00 372.50 120.00 373.00 120.00 373.00
C 122.79 376.77 121.00 387.06 121.00 392.00
C 121.00 392.50 121.00 393.00 121.00 393.00
C 121.00 398.39 120.45 404.36 120.00 409.00
C 120.00 412.33 120.00 415.67 120.00 419.00
C 120.00 438.01 117.17 461.35 111.00 479.00
C 117.68 475.92 114.96 459.78 118.01 452.01 C 121.06 444.23 119.39 430.45 121.02 421.02 C 122.65 411.60 122.04 398.51 122.00 388.00 C 121.96 377.50 122.32 364.74 122.00 354.00 C 121.68 343.26 123.34 331.84 122.00 322.00
C 122.00 323.66 122.05 325.34 122.00 327.00 Z"/>
</g>
<g fill="#151813" fill-opacity="1.00" stroke="None">
<path d="
M 203.00 397.00 
C 201.40 400.93 200.08 404.94 199.00 409.00
C 211.86 390.52 226.77 374.60 243.92 358.92 C 261.06 343.23 283.88 335.49 304.00 325.00
C 265.28 335.86 228.47 364.95 205.00 400.00
C 204.33 399.68 203.07 397.47 203.00 397.00 Z"/>
</g>
<g fill="#423327" fill-opacity="1.00" stroke="None">
<path d="
M 121.00 332.00 
C 121.17 330.80 121.95 328.87 122.00 327.00
C 121.85 328.15 121.07 330.18 121.00 332.00 Z"/>
</g>
<g fill="#DC592F" fill-opacity="1.00" stroke="None">
<path d="
M 190.00 358.00 
C 190.62 351.63 190.03 343.32 190.00 337.00
C 189.38 343.87 190.00 351.10 190.00 358.00 Z"/>
</g>
<g fill="#7D6853" fill-opacity="1.00" stroke="None">
<path d="
M 120.00 351.00 
C 120.05 351.49 120.00 352.00 120.00 352.00
C 120.25 352.25 121.00 352.00 121.00 352.00
C 121.00 349.67 121.00 347.33 121.00 345.00
C 120.82 346.54 119.75 348.69 120.00 351.00 Z"/>
</g>
<g fill="#FCF7D5" fill-opacity="1.00" stroke="None">
<path d="
M 120.00 419.00 
C 120.00 415.67 120.00 412.33 120.00 409.00
C 120.00 404.62 118.55 396.30 121.00 393.00
C 121.00 393.00 121.00 392.50 121.00 392.00
C 118.21 388.23 120.00 377.94 120.00 373.00
C 120.00 373.00 120.00 372.50 120.00 372.00
C 120.00 365.33 120.00 358.67 120.00 352.00
C 120.00 352.00 120.05 351.49 120.00 351.00
C 117.30 371.95 117.96 397.95 120.00 419.00 Z"/>
</g>
<g fill="#36291C" fill-opacity="1.00" stroke="None">
<path d="
M 120.00 372.00 
C 122.88 368.10 121.00 357.17 121.00 352.00
C 121.00 352.00 120.25 352.25 120.00 352.00
C 120.00 358.67 120.00 365.33 120.00 372.00 Z"/>
</g>
<g fill="#8F7D61" fill-opacity="1.00" stroke="None">
<path d="
M 445.00 370.00 
C 448.89 366.67 452.63 362.94 456.00 359.00
C 452.46 362.54 448.59 366.41 445.00 370.00 Z"/>
</g>
<g fill="#75644C" fill-opacity="1.00" stroke="None">
<path d="
M 121.00 392.00 
C 121.00 387.06 122.79 376.77 120.00 373.00
C 120.00 377.94 118.21 388.23 121.00 392.00 Z"/>
</g>
<g fill="#786951" fill-opacity="1.00" stroke="None">
<path d="
M 120.00 409.00 
C 120.45 404.36 121.00 398.39 121.00 393.00
C 118.55 396.30 120.00 404.62 120.00 409.00 Z"/>
</g>
<g fill="#131813" fill-opacity="1.00" stroke="None">
<path d="
M 241.00 402.00 
C 243.68 402.36 258.51 403.00 261.00 398.00
C 254.52 400.07 247.71 400.86 241.00 402.00 Z"/>
</g>
<g fill="#121712" fill-opacity="1.00" stroke="None">
<path d="
M 199.00 503.00 
C 201.77 499.20 195.30 491.93 195.33 485.67 C 195.36 479.41 193.32 472.03 194.00 464.00 C 194.68 455.97 195.31 453.56 197.07 444.07 C 198.83 434.58 205.70 421.30 212.25 416.25 C 218.79 411.20 218.59 410.60 224.78 407.78 C 230.96 404.95 237.15 403.81 238.00 403.00
C 225.74 407.01 213.12 409.27 205.75 421.75 C 198.39 434.24 194.06 444.24 193.00 459.00 C 191.94 473.76 193.53 489.73 199.00 503.00 Z"/>
</g>
<g fill="#121813" fill-opacity="1.00" stroke="None">
<path d="
M 199.00 504.00 
C 192.01 501.36 189.56 491.50 185.78 485.22 C 182.00 478.94 181.34 467.16 181.00 459.00 C 180.66 450.84 183.27 439.93 185.00 432.00
C 182.84 437.06 179.98 445.03 180.00 452.00 C 180.02 458.97 180.20 468.34 181.07 473.93 C 181.94 479.51 185.69 488.46 187.75 492.25 C 189.80 496.05 197.21 505.86 199.00 504.00 Z"/>
</g>
<g fill="#8C7960" fill-opacity="1.00" stroke="None">
<path d="
M 324.00 454.00 
C 325.50 452.37 327.48 450.78 329.00 449.00
C 327.36 450.64 325.52 452.08 324.00 454.00 Z"/>
</g>
<g fill="#0D0805" fill-opacity="1.00" stroke="None">
<path d="
M 99.00 544.00 
C 99.00 550.33 99.00 556.67 99.00 563.00
C 99.00 586.45 107.70 607.89 122.00 626.00
C 124.35 628.55 127.50 631.69 130.00 634.00
C 143.77 644.87 158.39 649.95 174.00 656.00
C 182.27 657.95 191.25 658.00 200.00 658.00
C 202.05 657.80 205.31 657.10 208.00 657.00
C 264.09 654.86 297.95 605.57 299.00 553.00
C 299.06 550.21 299.07 548.18 300.00 546.00
C 300.00 545.50 300.00 544.50 300.00 544.00
C 297.14 540.80 300.83 534.27 298.00 531.00
C 298.58 540.91 297.66 552.62 297.00 562.00 C 296.34 571.38 294.39 580.54 291.98 588.98 C 289.56 597.41 286.62 604.13 282.30 611.31 C 277.99 618.48 274.25 623.28 268.25 629.25 C 262.24 635.22 257.47 638.98 250.23 643.23 C 242.99 647.48 235.53 649.62 227.22 652.22 C 218.91 654.83 208.36 656.18 199.00 656.00 C 189.64 655.82 178.44 655.48 170.02 652.98 C 161.61 650.47 154.33 648.15 147.08 643.92 C 139.83 639.69 134.35 636.42 128.25 630.75 C 122.15 625.08 118.75 619.61 114.25 612.75 C 109.75 605.88 107.17 598.41 104.78 590.22 C 102.38 582.04 100.24 572.10 100.00 563.00 C 99.76 553.90 100.05 540.61 101.07 532.07 C 102.10 523.54 106.03 512.83 106.07 505.07 C 106.12 497.32 115.49 485.84 111.00 480.00
C 107.02 501.26 99.00 521.73 99.00 544.00 Z"/>
</g>
<g fill="#8C785E" fill-opacity="1.00" stroke="None">
<path d="
M 300.00 517.00 
C 300.16 515.62 300.87 513.04 301.00 511.00
C 300.76 512.55 300.06 514.78 300.00 517.00 Z"/>
</g>
<g fill="#FCF5CE" fill-opacity="1.00" stroke="None">
<path d="
M 300.00 544.00 
C 300.00 544.50 300.00 545.50 300.00 546.00
C 300.00 548.31 299.82 550.70 300.00 553.00
C 300.28 554.25 299.40 556.47 301.00 557.00
C 301.44 547.38 300.86 536.90 300.00 528.00
C 300.00 533.33 300.00 538.67 300.00 544.00 Z"/>
</g>
<g fill="#635440" fill-opacity="1.00" stroke="None">
<path d="
M 99.00 563.00 
C 99.00 556.67 99.00 550.33 99.00 544.00
C 98.43 549.91 98.42 557.02 99.00 563.00 Z"/>
</g>
<g fill="#A08A6B" fill-opacity="1.00" stroke="None">
<path d="
M 299.00 553.00 
C 299.00 553.00 300.00 552.96 300.00 553.00
C 299.82 550.70 300.00 548.31 300.00 546.00
C 299.07 548.18 299.06 550.21 299.00 553.00 Z"/>
</g>
<g fill="#948065" fill-opacity="1.00" stroke="None">
<path d="
M 130.00 634.00 
C 127.50 631.69 124.35 628.55 122.00 626.00
C 124.31 628.93 127.02 631.65 130.00 634.00 Z"/>
</g>
<g fill="#F7F2D1" fill-opacity="1.00" stroke="None">
<path d="
M 208.00 658.00 
C 205.38 658.23 202.63 658.00 200.00 658.00
C 191.25 658.00 182.27 657.95 174.00 656.00
C 177.94 657.53 186.82 658.96 191.00 659.00 C 195.18 659.04 208.40 658.61 208.00 658.00 Z"/>
</g>
<g fill="#4E3928" fill-opacity="1.00" stroke="None">
<path d="
M 200.00 658.00 
C 202.63 658.00 205.38 658.23 208.00 658.00
C 208.00 658.00 208.02 657.00 208.00 657.00
C 205.31 657.10 202.05 657.80 200.00 658.00 Z"/>
</g>
</svg>